<?xml version="1.0" standalone="no"?><!DOCTYPE svg PUBLIC "-//W3C//DTD SVG 1.1//EN" "http://www.w3.org/Graphics/SVG/1.1/DTD/svg11.dtd"><svg class="icon" height="512" viewBox="0 0 1024 1024" version="1.1" xmlns="http://www.w3.org/2000/svg"><path d="M512 512m-500.849778 0a500.849778 500.849778 0 1 0 1001.699556 0 500.849778 500.849778 0 1 0-1001.699556 0Z" fill="#FFFFFF" /><path d="M512 1024a512 512 0 1 1 512-512 512.568889 512.568889 0 0 1-512 512zM512 22.243556A489.756444 489.756444 0 1 0 1001.756444 512 490.268444 490.268444 0 0 0 512 22.243556z" fill="#FFFFFF" /><path d="M595.456 601.031111s-19.057778 129.308444 61.212444 161.393778c65.251556 26.055111 159.004444 47.729778 193.024 101.774222-37.205333 34.645333-151.665778 137.557333-337.692444 137.557333s-304.924444-107.747556-337.692444-137.955555a96.142222 96.142222 0 0 1 26.055111-23.438222c42.211556-25.6 109.226667-54.954667 172.544-77.937778s70.428444-69.575111 66.787555-155.818667z" fill="#EDE7E6" /><path d="M372.849778 756.622222s52.167111 83.740444 139.150222 83.740445c73.216 0 150.243556-61.155556 150.243556-77.937778 0 0 129.649778 45.511111 172.544 83.456a91.534222 91.534222 0 0 1 14.791111 16.554667c-19.854222 20.821333-123.562667 139.264-337.578667 139.264-209.180444 0-322.332444-115.313778-338.488889-138.467556a80.611556 80.611556 0 0 1 10.126222-11.832889c29.354667-27.989333 97.848889-66.332444 189.212445-94.776889z" fill="#76A3E2" /><path d="M367.331556 756.622222c22.072889 27.249778 79.985778 83.456 155.818666 83.456 56.263111 0 111.217778-46.307556 141.880889-77.596444 14.336 6.144 24.462222 10.752 36.238222 15.758222-35.726222 43.235556-106.325333 102.4-176.355555 102.4-90.282667 0-164.977778-65.308444-188.814222-112.981333a297.699556 297.699556 0 0 1 31.232-11.036445z" fill="#4C73A9" /><path d="M675.953778 541.070222s2.787556 19.342222 13.596444 20.423111 75.093333-93.866667 20.366222-129.137777c0 0-17.066667-10.467556-27.136 6.826666-0.113778-0.113778 14.051556 84.536889-6.826666 101.888z" fill="#EFE7E6" /><path d="M380.814222 541.582222s-2.673778 18.887111-13.198222 19.968-75.889778-103.992889-22.755556-138.524444a41.187556 41.187556 0 0 1 29.184 18.944s-13.539556 82.602667 6.769778 99.612444z" fill="#EFE7E6" /><path d="M433.891556 656.668444s108.657778 131.868444 210.488888 115.598223c-33.564444-35.384889-27.136-129.194667-27.136-129.194667z" fill="#E3DCDB" /><path d="M529.066667 711.111111c73.955556 0 172.202667-85.788444 172.202666-254.748444 0-144.668444-100.693333-207.644444-158.606222-207.644445s-122.254222 7.964444-169.870222 129.194667C304.810667 551.253333 418.531556 711.111111 529.066667 711.111111z" fill="#F7EDEB" /><path d="M467.456 289.393778s46.876444 41.187556 143.075556 74.695111c75.491556 26.510222 74.695111 95.175111 74.695111 95.175111l13.539555-26.908444s27.761778-9.386667 30.264889 46.307555c0 0 26.339556-75.662222 3.754667-155.079111s-87.836444-121.742222-148.423111-134.314667c-66.048-13.653333-136.533333-9.955556-191.146667 32.256S311.125333 336.668444 318.577778 425.472s9.841778 58.709333 9.841778 58.709333S318.293333 423.139556 352.711111 425.528889c13.312 0.910222 13.596444 34.133333 13.596445 34.133333S373.532444 329.955556 467.456 289.393778z" fill="#4C73A9" /></svg>